{"title":"18+ Flock Of Dudes 2016 Movies HDRip XviD ESubs New +Sample ☻rDX","uid":15939286,"size":742846975,"categoryP":"video","categoryS":"movies","magnet":"?xt=urn:btih:62c602318b38cc489b5b4da02d8dd568419b9408&amp;dn=18%2B+Flock+Of+Dudes+2016+Movies+HDRip+XviD+ESubs+New+%2BSample+%E2%98%BBrDX&amp;tr=udp%3A%2F%2Ftracker.leechers-paradise.org%3A6969&amp;tr=udp%3A%2F%2Fzer0day.ch%3A1337&amp;tr=udp%3A%2F%2Fopen.demonii.com%3A1337&amp;tr=udp%3A%2F%2Ftracker.coppersurfer.tk%3A6969&amp;tr=udp%3A%2F%2Fexodus.desync.com%3A6969","seeders":10,"leechers":9,"uploader":"basicssom","files":3,"time":1475436895,"description":"----------------------------------------------------------------\r\n18+ Flock Of Dudes 2016 English Movies HDRip XviD ESubs AAC New Source with Sample ☻rDX☻\r\n\r\nSCREEN SHOTS &amp; POSTER:\r\n  \nhttp://postimage.co.nr/2016/10/gps/index.htm  \nhttp://postimage.co.nr/2016/10/gps/1.html  \nhttp://postimage.co.nr/2016/10/gps/2.html  \nhttp://postimage.co.nr/2016/10/gps/3.html  \nhttp://postimage.co.nr/2016/10/gps/4.html  \nhttp://postimage.co.nr/2016/10/gps/5.html  \nhttp://postimage.co.nr/2016/10/gps/6.html  \nhttp://postimage.co.nr/2016/10/gps/7.html  \nhttp://postimage.co.nr/2016/10/gps/8.html  \nhttp://postimage.co.nr/2016/10/gps/9.html  \nhttp://postimage.co.nr/2016/10/gps/10.html\r\n\r\nFormat                                   : Matroska\r\nFormat version                           : Version 4 / Version 2\r\nFile size                                : 703 MiB\r\nDuration                                 : 1 h 40 min\r\nOverall bit rate                         : 976 kb/s\r\nMovie name                               : Flock Of Dudes 2016 English Movies HDRip XviD ESubs AAC New Source ☻rDX☻\r\n\r\nVideo\r\nID                                       : 1\r\nFormat                                   : AVC\r\nFormat/Info                              : Advanced Video Codec\r\nFormat profile                           :   \r\nFormat settings, CABAC                   : Yes\r\nFormat settings, ReFrames                : 5 frames\r\nCodec ID                                 : V_MPEG4/ISO/AVC\r\nDuration                                 : 1 h 40 min\r\nBit rate                                 : 800 kb/s\r\nWidth                                    : 720 pixels\r\nHeight                                   : 384 pixels\r\nDisplay aspect ratio                     : 1.85:1\r\nFrame rate mode                          : Constant\r\nFrame rate                               : 23.976 (24000/1001) FPS\r\nStandard                                 : Component\r\nColor space                              : YUV\r\nChroma subsampling                       : 4:2:0\r\nBit depth                                : 8 bits\r\nScan type                                : Progressive\r\nBits/(Pixel*Frame)                       : 0.121\r\nStream size                              : 551 MiB (78%)\r\nTitle                                    : ☻rDX☻\r\nWriting library                          : XviD\r\n\r\nAudio\r\nID                                       : 2\r\nFormat                                   : AC-3\r\nFormat/Info                              : Audio Coding 3\r\nMode extension                           : CM (complete main)\r\nFormat settings, Endianness              : Big\r\nCodec ID                                 : A_AC3\r\nDuration                                 : 1 h 40 min\r\nBit rate mode                            : Constant\r\nBit rate                                 : 192 kb/s\r\nChannel(s)                               : 2 channels\r\nChannel positions                        : Front: L R\r\nSampling rate                            : 48.0 kHz\r\nFrame rate                               : 31.250 FPS (1536 spf)\r\nCompression mode                         : Lossy\r\nStream size                              : 138 MiB (20%)\r\nTitle                                    : ☻rDX☻\r\n\r\nIMDB \nhttp://www.imdb.com/title/tt3027644/","torrent":{"xt":"urn:btih:62c602318b38cc489b5b4da02d8dd568419b9408","amp;dn":"18%2B+Flock+Of+Dudes+2016+Movies+HDRip+XviD+ESubs+New+%2BSample+%E2%98%BBrDX","amp;tr":["udp%3A%2F%2Ftracker.leechers-paradise.org%3A6969","udp%3A%2F%2Fzer0day.ch%3A1337","udp%3A%2F%2Fopen.demonii.com%3A1337","udp%3A%2F%2Ftracker.coppersurfer.tk%3A6969","udp%3A%2F%2Fexodus.desync.com%3A6969"],"infoHash":"62c602318b38cc489b5b4da02d8dd568419b9408","infoHashBuffer":{"type":"Buffer","data":[98,198,2,49,139,56,204,72,155,91,77,160,45,141,213,104,65,155,148,8]},"announce":[],"urlList":[]}}